# xmcd
#
# Track frame offsets: 
#        150
#        20581
#        37617
#        50074
#        67415
#        81819
#        101845
#        114834
#        131711
#        150869
#        168280
#        186210
#        205425
#        228184
#
# Disc length: 3376 seconds
#
# Revision: 0
# Processed by: cddbd v1.5.2PL0 Copyright (c) Steve Scherf et al.
# Submitted via: ExactAudioCopy v1.0b4
#
DISCID=b50d2e0e
DTITLE=Blackburn - Brothers in This World
DYEAR=2015
DGENRE=Blues
TTITLE0=My Train
TTITLE1=Good Woman
TTITLE2=Holla Back
TTITLE3=Walking In New, New Orleans
TTITLE4=Railroad Song
TTITLE5=I Can't Go Home
TTITLE6=Hey Hey
TTITLE7=Traces
TTITLE8=You Think You Know Me
TTITLE9=I Can't Take It (I Miss Your Smile)
TTITLE10=Still Taking Care Of Business
TTITLE11=Why I Sing The Blues
TTITLE12=White Lightning
TTITLE13=Good Woman Reprise
EXTD=
EXTT0=
EXTT1=
EXTT2=
EXTT3=
EXTT4=
EXTT5=
EXTT6=
EXTT7=
EXTT8=
EXTT9=
EXTT10=
EXTT11=
EXTT12=
EXTT13=
PLAYORDER=
